<?xml version="1.0" encoding="utf-8"?>
<!-- Generator: Adobe Illustrator 25.2.3, SVG Export Plug-In . SVG Version: 6.00 Build 0)  -->
<svg version="1.1" id="Layer_1" xmlns="http://www.w3.org/2000/svg" xmlns:xlink="http://www.w3.org/1999/xlink" x="0px" y="0px"
	 viewBox="0 0 24 24" style="enable-background:new 0 0 24 24;" xml:space="preserve">
<style type="text/css">
	.st0{fill:#FFFFFF;}
</style>
<path class="st0" d="M12,20c4.4,0,8-3.6,8-8s-3.6-8-8-8s-8,3.6-8,8S7.6,20,12,20z M12,22C6.5,22,2,17.5,2,12S6.5,2,12,2
	s10,4.5,10,10S17.5,22,12,22z"/>
<path class="st0" d="M16,9.9h-2.5V9.3H16L16,9.9L16,9.9z M11.9,12.4c0.2,0.2,0.2,0.6,0.2,0.9c0,0.4-0.1,0.7-0.3,1
	c-0.3,0.4-0.7,0.7-1.1,0.8c-0.3,0.1-0.6,0.1-0.9,0.1H7V9h3c0.8,0,1.3,0.2,1.6,0.7c0.2,0.3,0.3,0.6,0.3,0.9c0,0.4-0.1,0.7-0.3,0.9
	c-0.1,0.1-0.3,0.2-0.5,0.4C11.5,12,11.7,12.2,11.9,12.4z M8.4,11.5h1.3c0.3,0,0.5-0.1,0.7-0.2c0.2-0.1,0.3-0.3,0.3-0.5
	c0-0.3-0.1-0.5-0.3-0.6c-0.2-0.1-0.5-0.1-0.7-0.1H8.4C8.4,10.1,8.4,11.5,8.4,11.5z M10.8,13.3c0-0.3-0.1-0.5-0.4-0.7
	c-0.1-0.1-0.4-0.1-0.6-0.1H8.4v1.7h1.3c0.3,0,0.5,0,0.6-0.1C10.7,13.9,10.8,13.6,10.8,13.3z M17,12.2c0,0.2,0,0.5,0,0.9h-3.2
	c0,0.4,0.2,0.8,0.5,0.9c0.2,0.1,0.4,0.2,0.6,0.2c0.3,0,0.5-0.1,0.6-0.2c0.1-0.1,0.2-0.2,0.2-0.3h1.2c0,0.3-0.2,0.5-0.4,0.8
	c-0.4,0.4-1,0.6-1.7,0.6c-0.6,0-1.1-0.2-1.6-0.5c-0.5-0.4-0.7-1-0.7-1.8c0-0.8,0.2-1.4,0.6-1.8c0.4-0.4,0.9-0.6,1.6-0.6
	c0.4,0,0.7,0.1,1,0.2c0.3,0.1,0.6,0.4,0.8,0.7C16.8,11.6,16.9,11.9,17,12.2z M15.8,12.4c0-0.3-0.1-0.5-0.3-0.7
	c-0.2-0.2-0.4-0.2-0.7-0.2c-0.3,0-0.5,0.1-0.7,0.3c-0.2,0.2-0.3,0.4-0.3,0.7C13.8,12.4,15.8,12.4,15.8,12.4z"/>
</svg>
