<?xml version="1.0" encoding="utf-8"?>
<!-- Generator: Adobe Illustrator 25.2.3, SVG Export Plug-In . SVG Version: 6.00 Build 0)  -->
<svg version="1.1" id="Layer_1" xmlns="http://www.w3.org/2000/svg" xmlns:xlink="http://www.w3.org/1999/xlink" x="0px" y="0px"
	 viewBox="0 0 24 24" style="enable-background:new 0 0 24 24;" xml:space="preserve">
<style type="text/css">
	.st0{fill:#FFFFFF;}
</style>
<path class="st0" d="M10.2,17c0.1,0,0.2,0,0.3,0c0.1,0,0.1-0.1,0.2-0.1c0.1-0.1,0.1-0.2,0.1-0.3l0-0.6c0-0.4,0-0.6,0-0.8l-0.2,0
	c-0.2,0-0.3,0-0.5,0c-0.2,0-0.4,0-0.6-0.1c-0.2,0-0.4-0.1-0.5-0.2c-0.2-0.1-0.3-0.3-0.4-0.5l-0.1-0.2c-0.1-0.1-0.2-0.3-0.3-0.4
	c-0.1-0.1-0.2-0.2-0.4-0.3l-0.1,0c0,0-0.1-0.1-0.1-0.1c0,0-0.1-0.1-0.1-0.1c0,0,0-0.1,0-0.1c0.1,0,0.2,0,0.2,0l0.2,0
	c0.1,0,0.2,0.1,0.4,0.2c0.2,0.1,0.3,0.3,0.4,0.4C9,14,9.2,14.2,9.4,14.3c0.2,0.1,0.3,0.2,0.5,0.2c0.2,0,0.3,0,0.5,0
	c0.1,0,0.3-0.1,0.4-0.1c0-0.4,0.2-0.6,0.4-0.8c-0.3,0-0.6-0.1-0.8-0.1C10,13.3,9.8,13.2,9.5,13c-0.3-0.1-0.5-0.3-0.7-0.5
	c-0.2-0.2-0.3-0.5-0.4-0.9c-0.1-0.4-0.2-0.8-0.2-1.2c0-0.7,0.2-1.2,0.6-1.7C8.7,8.2,8.7,7.6,9,7C9.1,7,9.4,7,9.7,7.1
	c0.3,0.1,0.5,0.2,0.7,0.3c0.1,0.1,0.3,0.2,0.3,0.2c0.5-0.1,1-0.2,1.6-0.2c0.5,0,1.1,0.1,1.6,0.2l0.3-0.2c0.2-0.1,0.5-0.3,0.8-0.4
	C15.2,7,15.4,7,15.6,7c0.2,0.6,0.3,1.2,0.1,1.7c0.4,0.5,0.6,1,0.6,1.7c0,0.5-0.1,0.9-0.2,1.2s-0.3,0.6-0.4,0.9
	c-0.2,0.2-0.4,0.4-0.7,0.5c-0.2,0.1-0.5,0.2-0.8,0.3c-0.3,0.1-0.6,0.1-0.8,0.1c0.3,0.2,0.4,0.6,0.4,1.2v2c0,0.1,0,0.2,0,0.2
	c0,0.1,0.1,0.1,0.1,0.1c0.1,0,0.1,0,0.2,0c0,0,0.1,0,0.2,0h-2L10.2,17L10.2,17z"/>
<path class="st0" d="M12,20c4.4,0,8-3.6,8-8s-3.6-8-8-8s-8,3.6-8,8S7.6,20,12,20z M12,22C6.5,22,2,17.5,2,12S6.5,2,12,2
	s10,4.5,10,10S17.5,22,12,22z"/>
</svg>
