<?xml version="1.0" encoding="utf-8"?>
<!-- Generator: Adobe Illustrator 25.2.3, SVG Export Plug-In . SVG Version: 6.00 Build 0)  -->
<svg version="1.1" id="Layer_1" xmlns="http://www.w3.org/2000/svg" xmlns:xlink="http://www.w3.org/1999/xlink" x="0px" y="0px"
	 viewBox="0 0 24 24" style="enable-background:new 0 0 24 24;" xml:space="preserve">
<style type="text/css">
	.st0{fill:#FFFFFF;}
</style>
<path class="st0" d="M17,13.1v3.7h-2.1v-3.4c0-0.9-0.3-1.5-1.1-1.5c-0.6,0-0.9,0.4-1.1,0.8c-0.1,0.1-0.1,0.3-0.1,0.5v3.6h-2.1
	c0,0,0-5.8,0-6.4h2.1v0.9l0,0h0v0c0.3-0.4,0.8-1.1,1.9-1.1C15.9,10.2,17,11.2,17,13.1z M8.2,7.3C7.5,7.3,7,7.8,7,8.4
	C7,9,7.5,9.5,8.2,9.5h0c0.7,0,1.2-0.5,1.2-1.1C9.4,7.8,8.9,7.3,8.2,7.3z M7.1,16.8h2.1v-6.4H7.1V16.8z"/>
<path class="st0" d="M12,20c4.4,0,8-3.6,8-8s-3.6-8-8-8s-8,3.6-8,8S7.6,20,12,20z M12,22C6.5,22,2,17.5,2,12S6.5,2,12,2
	s10,4.5,10,10S17.5,22,12,22z"/>
</svg>
